# xmcd
# Track frame offsets:
# 150
# 14667
# 30360
# 50680
# 68355
# 85329
# 101940
# 119781
# 136881
# 151841
# 168348
# 183026
# 199165
# 215285
# 235967
# 250664
# 268781
# 286061
#
# Disc length: 4053 seconds
# Revision: 0
# Processed by: cddbd v1.5.2PL0 Copyright (c) Steve Scherf et al.
# Submitted via: VisiTrax 2.11.3.279 - For more info visit www.synapsa.com
#
DISCID=f80fd312
DTITLE=Various Artist - Dansk Rap 2003-2006
DYEAR=2006
DGENRE=Rap
TTITLE0=L.O.C. - Frk. Escobar
TTITLE1=Jokeren ft. Mass - Godt taget
TTITLE2=Troo.l.s and Orgi-E ft. Jooks og Tue Track - Rolig-rolig
TTITLE3=Ataf Khawaja - Bare en thug
TTITLE4=Suspekt - Hvem er en.kælling?
TTITLE5=Niarn - Dobbelt A
TTITLE6=Ali Kazim - Spørgsmål
TTITLE7=Rent Mel - Ta det af
TTITLE8=Per Vers - Black power
TTITLE9=UFO Yepha - Op med håret
TTITLE10=U$O - Ikk Å
TTITLE11=Johnson - Kig forbi
TTITLE12=Bikstok Røgsystem - Fabrik
TTITLE13=Hvid Sjokolade - Nummi nummi
TTITLE14=Lucie Baines - Working mans hustle
TTITLE15=Majid - New love
TTITLE16=Track 72 ft. Wildchild - Dat shit
TTITLE17=Static and Nat Ill ft. Promoe - GetUpGetOut
EXTD=
EXTT0=
EXTT1=
EXTT2=
EXTT3=
EXTT4=
EXTT5=
EXTT6=
EXTT7=
EXTT8=
EXTT9=
EXTT10=
EXTT11=
EXTT12=
EXTT13=
EXTT14=
EXTT15=
EXTT16=
EXTT17=
PLAYORDER=
